<svg id="Ebene_1" data-name="Ebene 1" xmlns="http://www.w3.org/2000/svg" viewBox="0 0 15.77327 15.94908"><defs><style>.cls-1{fill:#666;stroke:#666;stroke-miterlimit:10;stroke-width:0.5px;}</style></defs><title>saveFirefox</title><path class="cls-1" d="M15.53674,7.63882,8.30505.40707a.36907.36907,0,0,0-.52191,0L.47968,7.71053a.369.369,0,0,0,.52191.52192L8.04407,1.19l6.97076,6.97077a.369.369,0,0,0,.52191-.52191Z" transform="translate(-0.1216 -0.04899)"/><path class="cls-1" d="M13.07874,5.73971v7.42975a1.84041,1.84041,0,0,1-1.8404,1.84045H4.76166a1.84041,1.84041,0,0,1-1.8404-1.84045V5.57662l-.73809.7381v7.5929a1.8404,1.8404,0,0,0,1.84039,1.84045h7.95288a1.8404,1.8404,0,0,0,1.84039-1.84045V6.47781Z" transform="translate(-0.1216 -0.04899)"/><rect class="cls-1" x="7.63918" y="6.22209" width="0.7381" height="6.26871" rx="0.36905" ry="0.36905" transform="translate(17.24308 1.29922) rotate(90)"/><rect class="cls-1" x="7.51759" y="6.1731" width="0.7381" height="6.26871" rx="0.36905" ry="0.36905"/></svg>