<?xml version="1.0" encoding="utf-8"?>
<!-- Generator: Adobe Illustrator 22.0.0, SVG Export Plug-In . SVG Version: 6.00 Build 0)  -->
<svg version="1.1" xmlns="http://www.w3.org/2000/svg" xmlns:xlink="http://www.w3.org/1999/xlink" x="0px" y="0px"
	 viewBox="0 0 800 800" style="enable-background:new 0 0 800 800;" xml:space="preserve">
<style type="text/css">
	.st0{display:none;fill:#607D8B;stroke:#000000;stroke-miterlimit:10;}
	.st1{fill:#455A64;}
	.st2{fill:#37474F;}
	.st3{fill:#FFFFFF;}
</style>
<g id="Ebene_1">
	<rect class="st0" width="800" height="800"/>
	<circle class="st1" cx="400" cy="400" r="393.6"/>
	<path class="st2" d="M773.3,525l-252-252l-126.9-27.6L298,282.7l-51.6,86.2l33,159l245.5,245.5C641.7,734.3,734.2,641.9,773.3,525z
		"/>
</g>
<g id="Ebene_2">
	<g>
		<path class="st3" d="M399.8,224.3c-97,0-175.5,78.7-175.5,175.7s78.5,175.7,175.5,175.7c97.2,0,175.9-78.7,175.9-175.7
			S497,224.3,399.8,224.3z M400,540.6c-77.7,0-140.6-62.9-140.6-140.6S322.3,259.4,400,259.4S540.6,322.3,540.6,400
			S477.7,540.6,400,540.6z"/>
		<path class="st3" d="M408.8,312.1h-26.4v105.4l92.2,55.3l13.2-21.6l-79.1-46.9V312.1z"/>
	</g>
</g>
</svg>
