<?xml version="1.0" encoding="utf-8"?>
<!-- Generator: Adobe Illustrator 22.0.0, SVG Export Plug-In . SVG Version: 6.00 Build 0)  -->
<svg version="1.1" xmlns="http://www.w3.org/2000/svg" xmlns:xlink="http://www.w3.org/1999/xlink" x="0px" y="0px"
	 viewBox="0 0 800 800" style="enable-background:new 0 0 800 800;" xml:space="preserve">
<style type="text/css">
	.st0{fill:#455A64;}
	.st1{fill:#37474F;}
	.st2{fill:#FFFFFF;}
</style>
<g id="Ebene_2">
	<circle class="st0" cx="400" cy="400" r="393.6"/>
	<path class="st1" d="M525.5,773.1c111-37.3,199.8-122.7,241.8-231.4L530.8,283.2l-25.6,12l-65.1-64.8l-115.9,81.8l-88.8,42
		l37.2,37.2l2.4,25.3l-5.1,101L525.5,773.1z"/>
</g>
<g id="Ebene_1">
	<path class="st2" d="M527.7,416.8c0.7-5.5,1.2-11,1.2-16.8c0-5.8-0.5-11.3-1.2-16.8l36.2-28.3c3.3-2.6,4.1-7.2,2.1-11l-34.4-59.4
		c-2.1-3.8-6.7-5.2-10.5-3.8l-42.8,17.2c-8.9-6.9-18.6-12.5-29-16.8l-6.5-45.5c-0.5-4.1-4.1-7.2-8.4-7.2h-68.7
		c-4.3,0-7.9,3.1-8.4,7.2l-6.5,45.5c-10.5,4.3-20.1,10.1-29,16.8l-42.8-17.2c-4-1.5-8.4,0-10.5,3.8l-34.4,59.4
		c-2.2,3.8-1.2,8.4,2.1,11l36.2,28.3c-0.7,5.5-1.2,11.2-1.2,16.8c0,5.7,0.5,11.3,1.2,16.8l-36.2,28.3c-3.3,2.6-4.1,7.2-2.1,11
		l34.4,59.4c2.1,3.8,6.7,5.2,10.5,3.8l42.8-17.2c8.9,6.9,18.6,12.5,29,16.8l6.5,45.5c0.5,4.1,4.1,7.2,8.4,7.2h68.7
		c4.3,0,7.9-3.1,8.4-7.2l6.5-45.5c10.5-4.3,20.1-10.1,29-16.8l42.8,17.2c4,1.5,8.4,0,10.5-3.8l34.4-59.4c2.1-3.8,1.2-8.4-2.1-11
		L527.7,416.8z M400,460.1c-33.2,0-60.1-27-60.1-60.1s27-60.1,60.1-60.1s60.1,27,60.1,60.1S433.2,460.1,400,460.1z"/>
</g>
</svg>
