<?xml version="1.0" encoding="utf-8"?>
<!-- Generator: Adobe Illustrator 21.0.2, SVG Export Plug-In . SVG Version: 6.00 Build 0)  -->
<svg version="1.1" id="Ebene_1" xmlns="http://www.w3.org/2000/svg" xmlns:xlink="http://www.w3.org/1999/xlink" x="0px" y="0px"
	 viewBox="0 0 60.75 64" style="enable-background:new 0 0 60.75 64;" xml:space="preserve">
<style type="text/css">
	.st0{fill:#F44336;}
	.st1{fill:#009688;}
</style>
<rect x="20.872076" y="34.9102058" transform="matrix(-0.3700989 -0.9289923 0.9289923 -0.3700989 27.4703026 95.7908325)" class="st0" width="50.6769028" height="7.344245"/>
<rect x="26.5023422" y="42.3081932" class="st0" width="21.7811432" height="7.344245"/>
<rect x="9.8884983" y="40.6593399" transform="matrix(0.3951973 -0.9185963 0.9185963 0.3951973 -23.0770588 53.612648)" class="st1" width="38.5747795" height="7.344245"/>
<path class="st1" d="M22.0539341,1.25c-10.7834864,0-19.5251389,8.7416525-19.5251389,19.5251389
	s8.7416525,19.5251389,19.5251389,19.5251389S41.579071,31.5586224,41.579071,20.7751389S32.8374176,1.25,22.0539341,1.25z
	 M22.0539341,32.7725105c-6.6260786,0-11.9973745-5.3715248-11.9973745-11.9973717
	c0-6.6260777,5.3712959-11.9973745,11.9973745-11.9973745s11.9973736,5.3712969,11.9973736,11.9973745
	C34.0513077,27.4009857,28.6800098,32.7725105,22.0539341,32.7725105z"/>
</svg>
